<svg xmlns="http://www.w3.org/2000/svg" viewBox="0 0 96 96" fill="none" stroke-linecap="round" stroke-linejoin="round"><path d="M48 18L72 48L48 78L24 48L48 18Z" stroke="#1A1A40" stroke-width="6"/><path d="M48 18L72 48L48 78L24 48L48 18Z" stroke="#00FFFF" stroke-width="2"/><path d="M48 24L66 48L48 72L30 48L48 24Z" fill="#FF4500" stroke="#1A1A40" stroke-width="4"/><path d="M48 24L66 48L48 72L30 48L48 24Z" stroke="#00FFFF" stroke-width="1.5"/><path d="M48 48L48 24M36 36L48 24L60 36" stroke="#FF4500" stroke-width="4"/><path d="M48 48L48 24M36 36L48 24L60 36" stroke="#00FFFF" stroke-width="1.5"/></svg>